<?xml version="1.0" encoding="utf-8"?>
<!-- Generator: Adobe Illustrator 16.0.0, SVG Export Plug-In . SVG Version: 6.00 Build 0)  -->
<!DOCTYPE svg PUBLIC "-//W3C//DTD SVG 1.1//EN" "http://www.w3.org/Graphics/SVG/1.1/DTD/svg11.dtd">
<svg version="1.1" id="Layer_1" xmlns="http://www.w3.org/2000/svg" xmlns:xlink="http://www.w3.org/1999/xlink" x="0px" y="0px"
	 width="450px" height="600px" viewBox="0 0 450 600" enable-background="new 0 0 450 600" xml:space="preserve">
<rect x="124.624" y="357.448" fill="none" stroke="#ED1C24" stroke-width="5" stroke-miterlimit="10" width="200" height="200.552"/>
<rect x="324.623" y="256.896" fill="none" stroke="#00A14B" stroke-width="5" stroke-miterlimit="10" width="100.553" height="100.553"/>
<line fill="#21409A" stroke="#21409A" stroke-width="5" stroke-miterlimit="10" x1="124.624" y1="357.448" x2="324.623" y2="256.896"/>
<line fill="#21409A" stroke="#1F4396" stroke-width="5" stroke-miterlimit="10" x1="224.623" y1="57.812" x2="324.423" y2="258.188"/>
<line fill="#21409A" stroke="#1F4396" stroke-width="5" stroke-miterlimit="10" x1="24.824" y1="156.707" x2="124.624" y2="357.084"/>
<line fill="#21409A" stroke="#1F4396" stroke-width="5" stroke-miterlimit="10" x1="24.824" y1="156.707" x2="224.623" y2="57.812"/>
<text transform="matrix(1 0 0 1 152.1006 218.6001)" fill="#21409A" stroke="#21409A" stroke-miterlimit="10" font-family="'MyriadPro-Regular'" font-size="67">c</text>
<text transform="matrix(1 0 0 1 184.3003 189.9995)" fill="#21409A" font-family="'MyriadPro-Semibold'" font-size="23">2</text>
<text transform="matrix(1 0 0 1 200.4458 471.9492)" fill="#ED1C24" stroke="#ED1C24" stroke-miterlimit="10" font-family="'MyriadPro-Regular'" font-size="67">a</text>
<text transform="matrix(1 0 0 1 232.6455 443.3477)" fill="#ED1C24" font-family="'MyriadPro-Semibold'" font-size="23">2</text>
<text transform="matrix(1 0 0 1 355.3008 325.2012)" fill="#00A14B" stroke="#00A14B" stroke-miterlimit="10" font-family="'MyriadPro-Regular'" font-size="49">b</text>
<text transform="matrix(1 0 0 1 382.5 296.6001)" fill="#00A14B" stroke="#00A14B" stroke-miterlimit="10" font-family="'MyriadPro-Semibold'" font-size="23">2</text>
<text transform="matrix(1 0 0 1 212.4468 385.1094)" fill="#ED1C24" stroke="#ED1C24" stroke-miterlimit="10" font-family="'MyriadPro-Regular'" font-size="37">a</text>
<text transform="matrix(1 0 0 1 200.0244 307.1719)" fill="#21409A" stroke="#21409A" stroke-miterlimit="10" font-family="'MyriadPro-Regular'" font-size="37">c</text>
<text transform="matrix(1 0 0 1 328.8242 317.2012)" fill="#00A14B" stroke="#00A14B" stroke-miterlimit="10" font-family="'MyriadPro-Regular'" font-size="25">b</text>
</svg>
