<svg xmlns="http://www.w3.org/2000/svg" xmlns:xlink="http://www.w3.org/1999/xlink" width="223.9333038330078" height="69.20001220703125" style="width:223.9333038330078px;height:69.20001220703125px;font-family:Asana-Math, Asana;background:transparent;"><g><g><g><g><g><g><g transform="matrix(1,0,0,1,13.20001220703125,20.20001220703125)"><path transform="matrix(0.017,0,0,-0.017,0,0)" d="M16 23L16 -3C203 -3 203 0 239 0C275 0 275 -3 468 -3L468 82C353 77 307 81 122 77L304 270C401 373 431 428 431 503C431 618 353 689 226 689C154 689 105 669 56 619L39 483L68 483L81 529C97 587 133 612 200 612C286 612 341 558 341 473C341 398 299 324 186 204Z" stroke="rgb(0,0,0)" stroke-opacity="1" stroke-width="8" fill="rgb(0,0,0)" fill-opacity="1"></path></g></g></g></g><g><g><g><g transform="matrix(1,0,0,1,13.20001220703125,41.600006103515625)"><path transform="matrix(0.017,0,0,-0.017,0,0)" d="M418 -3L418 27L366 30C311 33 301 44 301 96L301 700L60 598L67 548L217 614L217 96C217 44 206 33 152 30L96 27L96 -3C250 0 250 0 261 0C292 0 402 -3 418 -3Z" stroke="rgb(0,0,0)" stroke-opacity="1" stroke-width="8" fill="rgb(0,0,0)" fill-opacity="1"></path></g></g></g></g><g><g><g><g transform="matrix(1,0,0,1,13.20001220703125,63)"><path transform="matrix(0.017,0,0,-0.017,0,0)" d="M263 689C108 689 29 566 29 324C29 207 50 106 85 57C120 8 176 -20 238 -20C389 -20 465 110 465 366C465 585 400 689 263 689ZM245 654C342 654 381 556 381 316C381 103 343 15 251 15C154 15 113 116 113 360C113 571 150 654 245 654Z" stroke="rgb(0,0,0)" stroke-opacity="1" stroke-width="8" fill="rgb(0,0,0)" fill-opacity="1"></path></g></g></g></g><svg x="2" overflow="visible" y="2" height="65.20001220703125" width="8.5"><path d=" M 6.27 1.70 c 0.00 -0.06 -0.04 -0.08 -0.08 -0.08 c -0.03 0.00 -0.06 0.01 -0.08 0.02 c -2.55 1.34 -4.65 3.73 -4.65 9.40 v 0.60 h 1.53 v -0.60 c 0.00 -3.23 0.64 -7.03 3.31 -9.06 c 0.12 -0.09 0.13 -0.19 0.13 -0.28 z   M 1.44 11.64 v 41.92 h 1.53 v -41.92 z" style="fill:rgb(0,0,0);fill-opacity:1;stroke-width:1px;stroke:none;stroke-opacity:1;"></path><path d=" M 6.27 63.50 c 0.00 0.06 -0.04 0.08 -0.08 0.08 c -0.03 0.00 -0.06 -0.01 -0.08 -0.02 c -2.55 -1.34 -4.65 -3.73 -4.65 -9.40 v -0.60 h 1.53 v 0.60 c 0.00 3.23 0.64 7.03 3.31 9.06 c 0.12 0.09 0.13 0.19 0.13 0.28 z" style="fill:rgb(0,0,0);fill-opacity:1;stroke-width:1px;stroke:none;stroke-opacity:1;"></path></svg><svg x="24.4000244140625" overflow="visible" y="2" height="65.20001220703125" width="8.5"><path d=" M 1.75 1.70 c 0.00 -0.06 0.04 -0.08 0.08 -0.08 c 0.03 0.00 0.06 0.01 0.08 0.02 c 2.55 1.34 4.65 3.73 4.65 9.40 v 0.60 h -1.53 v -0.60 c 0.00 -3.23 -0.64 -7.03 -3.31 -9.06 c -0.12 -0.09 -0.13 -0.19 -0.13 -0.28 z  M 6.58 11.64 v 41.92 h -1.53 v -41.92 z" style="fill:rgb(0,0,0);fill-opacity:1;stroke-width:1px;stroke:none;stroke-opacity:1;"></path><path d=" M 1.75 63.50 c 0.00 0.06 0.04 0.08 0.08 0.08 c 0.03 0.00 0.06 -0.01 0.08 -0.02 c 2.55 -1.34 4.65 -3.73 4.65 -9.40 v -0.60 h -1.53 v 0.60 c 0.00 3.23 -0.64 7.03 -3.31 9.06 c -0.12 0.09 -0.13 0.19 -0.13 0.28 z" style="fill:rgb(0,0,0);fill-opacity:1;stroke-width:1px;stroke:none;stroke-opacity:1;"></path></svg><line style="fill:none;stroke-width:[object Object];stroke:rgba(0, 0, 0, 0);" x1="8.0999755859375" y1="3" x2="27.799972534179688" y2="3"></line><line style="fill:none;stroke-width:[object Object];stroke:rgba(0, 0, 0, 0);" x1="8.0999755859375" y1="24.399993896484375" x2="27.799972534179688" y2="24.399993896484375"></line><line style="fill:none;stroke-width:[object Object];stroke:rgba(0, 0, 0, 0);" x1="8.0999755859375" y1="45.800018310546875" x2="27.799972534179688" y2="45.800018310546875"></line><line style="fill:none;stroke-width:[object Object];stroke:rgba(0, 0, 0, 0);" x1="8.0999755859375" y1="67.20002746582031" x2="27.799972534179688" y2="67.20002746582031"></line><line style="fill:none;stroke-width:[object Object];stroke:rgba(0, 0, 0, 0);" x1="8.0999755859375" y1="3" x2="8.0999755859375" y2="24.400009155273438"></line><line style="fill:none;stroke-width:[object Object];stroke:rgba(0, 0, 0, 0);" x1="27.799972534179688" y1="3" x2="27.799972534179688" y2="24.400009155273438"></line><line style="fill:none;stroke-width:[object Object];stroke:rgba(0, 0, 0, 0);" x1="8.0999755859375" y1="24.399993896484375" x2="8.0999755859375" y2="45.79998779296875"></line><line style="fill:none;stroke-width:[object Object];stroke:rgba(0, 0, 0, 0);" x1="27.799972534179688" y1="24.399993896484375" x2="27.799972534179688" y2="45.79998779296875"></line><line style="fill:none;stroke-width:[object Object];stroke:rgba(0, 0, 0, 0);" x1="8.0999755859375" y1="45.800018310546875" x2="8.0999755859375" y2="67.20002746582031"></line><line style="fill:none;stroke-width:[object Object];stroke:rgba(0, 0, 0, 0);" x1="27.799972534179688" y1="45.800018310546875" x2="27.799972534179688" y2="67.20002746582031"></line></g><g><g transform="matrix(1,0,0,1,36.29998779296875,40.066680908203125)"><path transform="matrix(0.017,0,0,-0.017,0,0)" d="M604 241L604 300L364 300L364 538L305 538L305 300L65 300L65 241L305 241L305 0L364 0L364 241Z" stroke="rgb(0,0,0)" stroke-opacity="1" stroke-width="8" fill="rgb(0,0,0)" fill-opacity="1"></path></g></g><g><g><g><g><g transform="matrix(1,0,0,1,62.25,20.20001220703125)"><path transform="matrix(0.017,0,0,-0.017,0,0)" d="M96 -20C207 16 255 39 309 85C406 168 457 283 457 417C457 586 376 689 244 689C116 689 20 589 20 455C20 340 95 256 199 256C233 256 272 267 290 282L360 340C352 172 243 49 62 5L62 -3ZM240 656C285 656 318 637 340 597C358 565 370 516 370 471C370 379 317 317 240 317C160 317 106 388 106 492C106 593 158 656 240 656Z" stroke="rgb(0,0,0)" stroke-opacity="1" stroke-width="8" fill="rgb(0,0,0)" fill-opacity="1"></path></g></g></g></g><g><g><g><g transform="matrix(1,0,0,1,62.25,41.600006103515625)"><path transform="matrix(0.017,0,0,-0.017,0,0)" d="M168 345C127 326 110 315 88 294C50 256 30 211 30 159C30 56 113 -20 226 -20C356 -20 464 82 464 206C464 286 427 329 313 381C404 443 436 485 436 545C436 631 365 689 259 689C140 689 53 613 53 508C53 440 80 402 168 345ZM284 295C347 267 385 218 385 164C385 80 322 14 241 14C156 14 101 74 101 167C101 240 130 286 204 331ZM223 423C160 454 128 494 128 544C128 610 176 655 247 655C320 655 368 607 368 534C368 477 343 438 278 396Z" stroke="rgb(0,0,0)" stroke-opacity="1" stroke-width="8" fill="rgb(0,0,0)" fill-opacity="1"></path></g></g></g></g><g><g><g><g transform="matrix(1,0,0,1,62.25,63)"><path transform="matrix(0.017,0,0,-0.017,0,0)" d="M409 603L47 -1L157 -1L497 659L497 689L44 689L44 477L74 477L81 533C89 595 96 603 142 603Z" stroke="rgb(0,0,0)" stroke-opacity="1" stroke-width="8" fill="rgb(0,0,0)" fill-opacity="1"></path></g></g></g></g><svg x="51.04998779296875" overflow="visible" y="2" height="65.20001220703125" width="8.5"><path d=" M 6.27 1.70 c 0.00 -0.06 -0.04 -0.08 -0.08 -0.08 c -0.03 0.00 -0.06 0.01 -0.08 0.02 c -2.55 1.34 -4.65 3.73 -4.65 9.40 v 0.60 h 1.53 v -0.60 c 0.00 -3.23 0.64 -7.03 3.31 -9.06 c 0.12 -0.09 0.13 -0.19 0.13 -0.28 z   M 1.44 11.64 v 41.92 h 1.53 v -41.92 z" style="fill:rgb(0,0,0);fill-opacity:1;stroke-width:1px;stroke:none;stroke-opacity:1;"></path><path d=" M 6.27 63.50 c 0.00 0.06 -0.04 0.08 -0.08 0.08 c -0.03 0.00 -0.06 -0.01 -0.08 -0.02 c -2.55 -1.34 -4.65 -3.73 -4.65 -9.40 v -0.60 h 1.53 v 0.60 c 0.00 3.23 0.64 7.03 3.31 9.06 c 0.12 0.09 0.13 0.19 0.13 0.28 z" style="fill:rgb(0,0,0);fill-opacity:1;stroke-width:1px;stroke:none;stroke-opacity:1;"></path></svg><svg x="73.45001220703125" overflow="visible" y="2" height="65.20001220703125" width="8.5"><path d=" M 1.75 1.70 c 0.00 -0.06 0.04 -0.08 0.08 -0.08 c 0.03 0.00 0.06 0.01 0.08 0.02 c 2.55 1.34 4.65 3.73 4.65 9.40 v 0.60 h -1.53 v -0.60 c 0.00 -3.23 -0.64 -7.03 -3.31 -9.06 c -0.12 -0.09 -0.13 -0.19 -0.13 -0.28 z  M 6.58 11.64 v 41.92 h -1.53 v -41.92 z" style="fill:rgb(0,0,0);fill-opacity:1;stroke-width:1px;stroke:none;stroke-opacity:1;"></path><path d=" M 1.75 63.50 c 0.00 0.06 0.04 0.08 0.08 0.08 c 0.03 0.00 0.06 -0.01 0.08 -0.02 c 2.55 -1.34 4.65 -3.73 4.65 -9.40 v -0.60 h -1.53 v 0.60 c 0.00 3.23 -0.64 7.03 -3.31 9.06 c -0.12 0.09 -0.13 0.19 -0.13 0.28 z" style="fill:rgb(0,0,0);fill-opacity:1;stroke-width:1px;stroke:none;stroke-opacity:1;"></path></svg><line style="fill:none;stroke-width:[object Object];stroke:rgba(0, 0, 0, 0);" x1="57.1500244140625" y1="3" x2="76.85002136230469" y2="3"></line><line style="fill:none;stroke-width:[object Object];stroke:rgba(0, 0, 0, 0);" x1="57.1500244140625" y1="24.399993896484375" x2="76.85002136230469" y2="24.399993896484375"></line><line style="fill:none;stroke-width:[object Object];stroke:rgba(0, 0, 0, 0);" x1="57.1500244140625" y1="45.800018310546875" x2="76.85002136230469" y2="45.800018310546875"></line><line style="fill:none;stroke-width:[object Object];stroke:rgba(0, 0, 0, 0);" x1="57.1500244140625" y1="67.20002746582031" x2="76.85002136230469" y2="67.20002746582031"></line><line style="fill:none;stroke-width:[object Object];stroke:rgba(0, 0, 0, 0);" x1="57.1500244140625" y1="3" x2="57.1500244140625" y2="24.400009155273438"></line><line style="fill:none;stroke-width:[object Object];stroke:rgba(0, 0, 0, 0);" x1="76.85002136230469" y1="3" x2="76.85002136230469" y2="24.400009155273438"></line><line style="fill:none;stroke-width:[object Object];stroke:rgba(0, 0, 0, 0);" x1="57.1500244140625" y1="24.399993896484375" x2="57.1500244140625" y2="45.79998779296875"></line><line style="fill:none;stroke-width:[object Object];stroke:rgba(0, 0, 0, 0);" x1="76.85002136230469" y1="24.399993896484375" x2="76.85002136230469" y2="45.79998779296875"></line><line style="fill:none;stroke-width:[object Object];stroke:rgba(0, 0, 0, 0);" x1="57.1500244140625" y1="45.800018310546875" x2="57.1500244140625" y2="67.20002746582031"></line><line style="fill:none;stroke-width:[object Object];stroke:rgba(0, 0, 0, 0);" x1="76.85002136230469" y1="45.800018310546875" x2="76.85002136230469" y2="67.20002746582031"></line></g><g><g transform="matrix(1,0,0,1,87.04998779296875,40.066680908203125)"><path transform="matrix(0.017,0,0,-0.017,0,0)" d="M604 347L604 406L65 406L65 347ZM604 134L604 193L65 193L65 134Z" stroke="rgb(0,0,0)" stroke-opacity="1" stroke-width="8" fill="rgb(0,0,0)" fill-opacity="1"></path></g></g><g><g><g><g><g transform="matrix(1,0,0,1,114.7000732421875,20.20001220703125)"><path transform="matrix(0.017,0,0,-0.017,0,0)" d="M16 23L16 -3C203 -3 203 0 239 0C275 0 275 -3 468 -3L468 82C353 77 307 81 122 77L304 270C401 373 431 428 431 503C431 618 353 689 226 689C154 689 105 669 56 619L39 483L68 483L81 529C97 587 133 612 200 612C286 612 341 558 341 473C341 398 299 324 186 204Z" stroke="rgb(0,0,0)" stroke-opacity="1" stroke-width="8" fill="rgb(0,0,0)" fill-opacity="1"></path></g></g><g><g transform="matrix(1,0,0,1,126.5833740234375,20.20001220703125)"><path transform="matrix(0.017,0,0,-0.017,0,0)" d="M604 241L604 300L364 300L364 538L305 538L305 300L65 300L65 241L305 241L305 0L364 0L364 241Z" stroke="rgb(0,0,0)" stroke-opacity="1" stroke-width="8" fill="rgb(0,0,0)" fill-opacity="1"></path></g></g><g><g transform="matrix(1,0,0,1,141.3333740234375,20.20001220703125)"><path transform="matrix(0.017,0,0,-0.017,0,0)" d="M96 -20C207 16 255 39 309 85C406 168 457 283 457 417C457 586 376 689 244 689C116 689 20 589 20 455C20 340 95 256 199 256C233 256 272 267 290 282L360 340C352 172 243 49 62 5L62 -3ZM240 656C285 656 318 637 340 597C358 565 370 516 370 471C370 379 317 317 240 317C160 317 106 388 106 492C106 593 158 656 240 656Z" stroke="rgb(0,0,0)" stroke-opacity="1" stroke-width="8" fill="rgb(0,0,0)" fill-opacity="1"></path></g></g></g></g><g><g><g><g transform="matrix(1,0,0,1,114.7000732421875,41.600006103515625)"><path transform="matrix(0.017,0,0,-0.017,0,0)" d="M418 -3L418 27L366 30C311 33 301 44 301 96L301 700L60 598L67 548L217 614L217 96C217 44 206 33 152 30L96 27L96 -3C250 0 250 0 261 0C292 0 402 -3 418 -3Z" stroke="rgb(0,0,0)" stroke-opacity="1" stroke-width="8" fill="rgb(0,0,0)" fill-opacity="1"></path></g></g><g><g transform="matrix(1,0,0,1,126.5833740234375,41.600006103515625)"><path transform="matrix(0.017,0,0,-0.017,0,0)" d="M604 241L604 300L364 300L364 538L305 538L305 300L65 300L65 241L305 241L305 0L364 0L364 241Z" stroke="rgb(0,0,0)" stroke-opacity="1" stroke-width="8" fill="rgb(0,0,0)" fill-opacity="1"></path></g></g><g><g transform="matrix(1,0,0,1,141.3333740234375,41.600006103515625)"><path transform="matrix(0.017,0,0,-0.017,0,0)" d="M168 345C127 326 110 315 88 294C50 256 30 211 30 159C30 56 113 -20 226 -20C356 -20 464 82 464 206C464 286 427 329 313 381C404 443 436 485 436 545C436 631 365 689 259 689C140 689 53 613 53 508C53 440 80 402 168 345ZM284 295C347 267 385 218 385 164C385 80 322 14 241 14C156 14 101 74 101 167C101 240 130 286 204 331ZM223 423C160 454 128 494 128 544C128 610 176 655 247 655C320 655 368 607 368 534C368 477 343 438 278 396Z" stroke="rgb(0,0,0)" stroke-opacity="1" stroke-width="8" fill="rgb(0,0,0)" fill-opacity="1"></path></g></g></g></g><g><g><g><g transform="matrix(1,0,0,1,114.7000732421875,63)"><path transform="matrix(0.017,0,0,-0.017,0,0)" d="M263 689C108 689 29 566 29 324C29 207 50 106 85 57C120 8 176 -20 238 -20C389 -20 465 110 465 366C465 585 400 689 263 689ZM245 654C342 654 381 556 381 316C381 103 343 15 251 15C154 15 113 116 113 360C113 571 150 654 245 654Z" stroke="rgb(0,0,0)" stroke-opacity="1" stroke-width="8" fill="rgb(0,0,0)" fill-opacity="1"></path></g></g><g><g transform="matrix(1,0,0,1,126.5833740234375,63)"><path transform="matrix(0.017,0,0,-0.017,0,0)" d="M604 241L604 300L364 300L364 538L305 538L305 300L65 300L65 241L305 241L305 0L364 0L364 241Z" stroke="rgb(0,0,0)" stroke-opacity="1" stroke-width="8" fill="rgb(0,0,0)" fill-opacity="1"></path></g></g><g><g transform="matrix(1,0,0,1,141.3333740234375,63)"><path transform="matrix(0.017,0,0,-0.017,0,0)" d="M409 603L47 -1L157 -1L497 659L497 689L44 689L44 477L74 477L81 533C89 595 96 603 142 603Z" stroke="rgb(0,0,0)" stroke-opacity="1" stroke-width="8" fill="rgb(0,0,0)" fill-opacity="1"></path></g></g></g></g><svg x="103.5" overflow="visible" y="2" height="65.20001220703125" width="8.5"><path d=" M 6.27 1.70 c 0.00 -0.06 -0.04 -0.08 -0.08 -0.08 c -0.03 0.00 -0.06 0.01 -0.08 0.02 c -2.55 1.34 -4.65 3.73 -4.65 9.40 v 0.60 h 1.53 v -0.60 c 0.00 -3.23 0.64 -7.03 3.31 -9.06 c 0.12 -0.09 0.13 -0.19 0.13 -0.28 z   M 1.44 11.64 v 41.92 h 1.53 v -41.92 z" style="fill:rgb(0,0,0);fill-opacity:1;stroke-width:1px;stroke:none;stroke-opacity:1;"></path><path d=" M 6.27 63.50 c 0.00 0.06 -0.04 0.08 -0.08 0.08 c -0.03 0.00 -0.06 -0.01 -0.08 -0.02 c -2.55 -1.34 -4.65 -3.73 -4.65 -9.40 v -0.60 h 1.53 v 0.60 c 0.00 3.23 0.64 7.03 3.31 9.06 c 0.12 0.09 0.13 0.19 0.13 0.28 z" style="fill:rgb(0,0,0);fill-opacity:1;stroke-width:1px;stroke:none;stroke-opacity:1;"></path></svg><svg x="152.5167236328125" overflow="visible" y="2" height="65.20001220703125" width="8.5"><path d=" M 1.75 1.70 c 0.00 -0.06 0.04 -0.08 0.08 -0.08 c 0.03 0.00 0.06 0.01 0.08 0.02 c 2.55 1.34 4.65 3.73 4.65 9.40 v 0.60 h -1.53 v -0.60 c 0.00 -3.23 -0.64 -7.03 -3.31 -9.06 c -0.12 -0.09 -0.13 -0.19 -0.13 -0.28 z  M 6.58 11.64 v 41.92 h -1.53 v -41.92 z" style="fill:rgb(0,0,0);fill-opacity:1;stroke-width:1px;stroke:none;stroke-opacity:1;"></path><path d=" M 1.75 63.50 c 0.00 0.06 0.04 0.08 0.08 0.08 c 0.03 0.00 0.06 -0.01 0.08 -0.02 c 2.55 -1.34 4.65 -3.73 4.65 -9.40 v -0.60 h -1.53 v 0.60 c 0.00 3.23 -0.64 7.03 -3.31 9.06 c -0.12 0.09 -0.13 0.19 -0.13 0.28 z" style="fill:rgb(0,0,0);fill-opacity:1;stroke-width:1px;stroke:none;stroke-opacity:1;"></path></svg><line style="fill:none;stroke-width:[object Object];stroke:rgba(0, 0, 0, 0);" x1="109.5999755859375" y1="3" x2="155.91664123535156" y2="3"></line><line style="fill:none;stroke-width:[object Object];stroke:rgba(0, 0, 0, 0);" x1="109.5999755859375" y1="24.399993896484375" x2="155.91664123535156" y2="24.399993896484375"></line><line style="fill:none;stroke-width:[object Object];stroke:rgba(0, 0, 0, 0);" x1="109.5999755859375" y1="45.800018310546875" x2="155.91664123535156" y2="45.800018310546875"></line><line style="fill:none;stroke-width:[object Object];stroke:rgba(0, 0, 0, 0);" x1="109.5999755859375" y1="67.20002746582031" x2="155.91664123535156" y2="67.20002746582031"></line><line style="fill:none;stroke-width:[object Object];stroke:rgba(0, 0, 0, 0);" x1="109.5999755859375" y1="3" x2="109.5999755859375" y2="24.400009155273438"></line><line style="fill:none;stroke-width:[object Object];stroke:rgba(0, 0, 0, 0);" x1="155.91664123535156" y1="3" x2="155.91664123535156" y2="24.400009155273438"></line><line style="fill:none;stroke-width:[object Object];stroke:rgba(0, 0, 0, 0);" x1="109.5999755859375" y1="24.399993896484375" x2="109.5999755859375" y2="45.79998779296875"></line><line style="fill:none;stroke-width:[object Object];stroke:rgba(0, 0, 0, 0);" x1="155.91664123535156" y1="24.399993896484375" x2="155.91664123535156" y2="45.79998779296875"></line><line style="fill:none;stroke-width:[object Object];stroke:rgba(0, 0, 0, 0);" x1="109.5999755859375" y1="45.800018310546875" x2="109.5999755859375" y2="67.20002746582031"></line><line style="fill:none;stroke-width:[object Object];stroke:rgba(0, 0, 0, 0);" x1="155.91664123535156" y1="45.800018310546875" x2="155.91664123535156" y2="67.20002746582031"></line></g><g><g transform="matrix(1,0,0,1,166.11669921875,40.066680908203125)"><path transform="matrix(0.017,0,0,-0.017,0,0)" d="M604 347L604 406L65 406L65 347ZM604 134L604 193L65 193L65 134Z" stroke="rgb(0,0,0)" stroke-opacity="1" stroke-width="8" fill="rgb(0,0,0)" fill-opacity="1"></path></g></g><g><g><g><g><g transform="matrix(1,0,0,1,193.7667236328125,20.20001220703125)"><path transform="matrix(0.017,0,0,-0.017,0,0)" d="M418 -3L418 27L366 30C311 33 301 44 301 96L301 700L60 598L67 548L217 614L217 96C217 44 206 33 152 30L96 27L96 -3C250 0 250 0 261 0C292 0 402 -3 418 -3ZM917 -3L917 27L865 30C810 33 800 44 800 96L800 700L559 598L566 548L716 614L716 96C716 44 705 33 651 30L595 27L595 -3C749 0 749 0 760 0C791 0 901 -3 917 -3Z" stroke="rgb(0,0,0)" stroke-opacity="1" stroke-width="8" fill="rgb(0,0,0)" fill-opacity="1"></path></g></g></g></g><g><g><g><g transform="matrix(1,0,0,1,198,41.600006103515625)"><path transform="matrix(0.017,0,0,-0.017,0,0)" d="M96 -20C207 16 255 39 309 85C406 168 457 283 457 417C457 586 376 689 244 689C116 689 20 589 20 455C20 340 95 256 199 256C233 256 272 267 290 282L360 340C352 172 243 49 62 5L62 -3ZM240 656C285 656 318 637 340 597C358 565 370 516 370 471C370 379 317 317 240 317C160 317 106 388 106 492C106 593 158 656 240 656Z" stroke="rgb(0,0,0)" stroke-opacity="1" stroke-width="8" fill="rgb(0,0,0)" fill-opacity="1"></path></g></g></g></g><g><g><g><g transform="matrix(1,0,0,1,198,63)"><path transform="matrix(0.017,0,0,-0.017,0,0)" d="M409 603L47 -1L157 -1L497 659L497 689L44 689L44 477L74 477L81 533C89 595 96 603 142 603Z" stroke="rgb(0,0,0)" stroke-opacity="1" stroke-width="8" fill="rgb(0,0,0)" fill-opacity="1"></path></g></g></g></g><svg x="182.566650390625" overflow="visible" y="2" height="65.20001220703125" width="8.5"><path d=" M 6.27 1.70 c 0.00 -0.06 -0.04 -0.08 -0.08 -0.08 c -0.03 0.00 -0.06 0.01 -0.08 0.02 c -2.55 1.34 -4.65 3.73 -4.65 9.40 v 0.60 h 1.53 v -0.60 c 0.00 -3.23 0.64 -7.03 3.31 -9.06 c 0.12 -0.09 0.13 -0.19 0.13 -0.28 z   M 1.44 11.64 v 41.92 h 1.53 v -41.92 z" style="fill:rgb(0,0,0);fill-opacity:1;stroke-width:1px;stroke:none;stroke-opacity:1;"></path><path d=" M 6.27 63.50 c 0.00 0.06 -0.04 0.08 -0.08 0.08 c -0.03 0.00 -0.06 -0.01 -0.08 -0.02 c -2.55 -1.34 -4.65 -3.73 -4.65 -9.40 v -0.60 h 1.53 v 0.60 c 0.00 3.23 0.64 7.03 3.31 9.06 c 0.12 0.09 0.13 0.19 0.13 0.28 z" style="fill:rgb(0,0,0);fill-opacity:1;stroke-width:1px;stroke:none;stroke-opacity:1;"></path></svg><svg x="213.433349609375" overflow="visible" y="2" height="65.20001220703125" width="8.5"><path d=" M 1.75 1.70 c 0.00 -0.06 0.04 -0.08 0.08 -0.08 c 0.03 0.00 0.06 0.01 0.08 0.02 c 2.55 1.34 4.65 3.73 4.65 9.40 v 0.60 h -1.53 v -0.60 c 0.00 -3.23 -0.64 -7.03 -3.31 -9.06 c -0.12 -0.09 -0.13 -0.19 -0.13 -0.28 z  M 6.58 11.64 v 41.92 h -1.53 v -41.92 z" style="fill:rgb(0,0,0);fill-opacity:1;stroke-width:1px;stroke:none;stroke-opacity:1;"></path><path d=" M 1.75 63.50 c 0.00 0.06 0.04 0.08 0.08 0.08 c 0.03 0.00 0.06 -0.01 0.08 -0.02 c 2.55 -1.34 4.65 -3.73 4.65 -9.40 v -0.60 h -1.53 v 0.60 c 0.00 3.23 -0.64 7.03 -3.31 9.06 c -0.12 0.09 -0.13 0.19 -0.13 0.28 z" style="fill:rgb(0,0,0);fill-opacity:1;stroke-width:1px;stroke:none;stroke-opacity:1;"></path></svg><line style="fill:none;stroke-width:[object Object];stroke:rgba(0, 0, 0, 0);" x1="188.6666259765625" y1="3" x2="216.8332977294922" y2="3"></line><line style="fill:none;stroke-width:[object Object];stroke:rgba(0, 0, 0, 0);" x1="188.6666259765625" y1="24.399993896484375" x2="216.8332977294922" y2="24.399993896484375"></line><line style="fill:none;stroke-width:[object Object];stroke:rgba(0, 0, 0, 0);" x1="188.6666259765625" y1="45.800018310546875" x2="216.8332977294922" y2="45.800018310546875"></line><line style="fill:none;stroke-width:[object Object];stroke:rgba(0, 0, 0, 0);" x1="188.6666259765625" y1="67.20002746582031" x2="216.8332977294922" y2="67.20002746582031"></line><line style="fill:none;stroke-width:[object Object];stroke:rgba(0, 0, 0, 0);" x1="188.6666259765625" y1="3" x2="188.6666259765625" y2="24.400009155273438"></line><line style="fill:none;stroke-width:[object Object];stroke:rgba(0, 0, 0, 0);" x1="216.8332977294922" y1="3" x2="216.8332977294922" y2="24.400009155273438"></line><line style="fill:none;stroke-width:[object Object];stroke:rgba(0, 0, 0, 0);" x1="188.6666259765625" y1="24.399993896484375" x2="188.6666259765625" y2="45.79998779296875"></line><line style="fill:none;stroke-width:[object Object];stroke:rgba(0, 0, 0, 0);" x1="216.8332977294922" y1="24.399993896484375" x2="216.8332977294922" y2="45.79998779296875"></line><line style="fill:none;stroke-width:[object Object];stroke:rgba(0, 0, 0, 0);" x1="188.6666259765625" y1="45.800018310546875" x2="188.6666259765625" y2="67.20002746582031"></line><line style="fill:none;stroke-width:[object Object];stroke:rgba(0, 0, 0, 0);" x1="216.8332977294922" y1="45.800018310546875" x2="216.8332977294922" y2="67.20002746582031"></line></g></g></g></svg>