<svg xmlns="http://www.w3.org/2000/svg" xmlns:xlink="http://www.w3.org/1999/xlink" width="64.94998168945312" height="69.19999694824219" style="width:64.94998168945312px;height:69.19999694824219px;font-family:Asana-Math, Asana;background:transparent;"><g><g><g><g><g><g><g transform="matrix(1,0,0,1,2,39.86665344238281)"><path transform="matrix(0.017,0,0,-0.017,0,0)" d="M166 420C187 420 203 421 229 424C118 304 76 221 76 121C76 44 122 -11 186 -11C324 -11 477 236 477 384C477 441 451 482 415 482C402 482 390 478 382 470L332 423L343 404C352 410 361 413 370 413C397 413 413 390 413 350C413 202 316 39 228 39C179 39 148 81 148 146C148 251 187 342 285 464L275 482C255 473 242 470 214 470C186 470 144 472 115 475L103 476C97 477 92 477 91 477C79 477 70 475 59 470C45 443 34 407 21 352L43 352L60 394C67 411 87 422 111 422C144 422 128 420 166 420Z" stroke="rgb(0,0,0)" stroke-opacity="1" stroke-width="8" fill="rgb(0,0,0)" fill-opacity="1"></path></g></g></g></g><svg x="2" overflow="visible" y="20.866653442382812" height="10" width="9.350006103515625"><path d=" M 9.35 4.85 l -3.15 -3.32 l -0.49 0.52 l 1.93 2.33 h -0.15 v 0.90 h 0.15 l -1.93 2.33 l 0.49 0.52 z  M 1.68 5.23 h 7.21 v -0.90 h -7.21 z" style="fill:rgb(0,0,0);fill-opacity:1;stroke-width:1px;stroke:none;stroke-opacity:1;"></path></svg></g><g><g transform="matrix(1,0,0,1,15.60003662109375,40.06666564941406)"><path transform="matrix(0.017,0,0,-0.017,0,0)" d="M604 347L604 406L65 406L65 347ZM604 134L604 193L65 193L65 134Z" stroke="rgb(0,0,0)" stroke-opacity="1" stroke-width="8" fill="rgb(0,0,0)" fill-opacity="1"></path></g></g><g><g><g><g><g transform="matrix(1,0,0,1,43.24993896484375,20.199996948242188)"><path transform="matrix(0.017,0,0,-0.017,0,0)" d="M263 689C108 689 29 566 29 324C29 207 50 106 85 57C120 8 176 -20 238 -20C389 -20 465 110 465 366C465 585 400 689 263 689ZM245 654C342 654 381 556 381 316C381 103 343 15 251 15C154 15 113 116 113 360C113 571 150 654 245 654Z" stroke="rgb(0,0,0)" stroke-opacity="1" stroke-width="8" fill="rgb(0,0,0)" fill-opacity="1"></path></g></g></g></g><g><g><g><g transform="matrix(1,0,0,1,43.24993896484375,41.59999084472656)"><path transform="matrix(0.017,0,0,-0.017,0,0)" d="M263 689C108 689 29 566 29 324C29 207 50 106 85 57C120 8 176 -20 238 -20C389 -20 465 110 465 366C465 585 400 689 263 689ZM245 654C342 654 381 556 381 316C381 103 343 15 251 15C154 15 113 116 113 360C113 571 150 654 245 654Z" stroke="rgb(0,0,0)" stroke-opacity="1" stroke-width="8" fill="rgb(0,0,0)" fill-opacity="1"></path></g></g></g></g><g><g><g><g transform="matrix(1,0,0,1,43.24993896484375,63)"><path transform="matrix(0.017,0,0,-0.017,0,0)" d="M263 689C108 689 29 566 29 324C29 207 50 106 85 57C120 8 176 -20 238 -20C389 -20 465 110 465 366C465 585 400 689 263 689ZM245 654C342 654 381 556 381 316C381 103 343 15 251 15C154 15 113 116 113 360C113 571 150 654 245 654Z" stroke="rgb(0,0,0)" stroke-opacity="1" stroke-width="8" fill="rgb(0,0,0)" fill-opacity="1"></path></g></g></g></g><svg x="32.04998779296875" overflow="visible" y="2" height="65.19999694824219" width="8.5"><path d=" M 6.27 1.70 c 0.00 -0.06 -0.04 -0.08 -0.08 -0.08 c -0.03 0.00 -0.06 0.01 -0.08 0.02 c -2.55 1.34 -4.65 3.73 -4.65 9.40 v 0.60 h 1.53 v -0.60 c 0.00 -3.23 0.64 -7.03 3.31 -9.06 c 0.12 -0.09 0.13 -0.19 0.13 -0.28 z   M 1.44 11.64 v 41.92 h 1.53 v -41.92 z" style="fill:rgb(0,0,0);fill-opacity:1;stroke-width:1px;stroke:none;stroke-opacity:1;"></path><path d=" M 6.27 63.50 c 0.00 0.06 -0.04 0.08 -0.08 0.08 c -0.03 0.00 -0.06 -0.01 -0.08 -0.02 c -2.55 -1.34 -4.65 -3.73 -4.65 -9.40 v -0.60 h 1.53 v 0.60 c 0.00 3.23 0.64 7.03 3.31 9.06 c 0.12 0.09 0.13 0.19 0.13 0.28 z" style="fill:rgb(0,0,0);fill-opacity:1;stroke-width:1px;stroke:none;stroke-opacity:1;"></path></svg><svg x="54.45001220703125" overflow="visible" y="2" height="65.19999694824219" width="8.5"><path d=" M 1.75 1.70 c 0.00 -0.06 0.04 -0.08 0.08 -0.08 c 0.03 0.00 0.06 0.01 0.08 0.02 c 2.55 1.34 4.65 3.73 4.65 9.40 v 0.60 h -1.53 v -0.60 c 0.00 -3.23 -0.64 -7.03 -3.31 -9.06 c -0.12 -0.09 -0.13 -0.19 -0.13 -0.28 z  M 6.58 11.64 v 41.92 h -1.53 v -41.92 z" style="fill:rgb(0,0,0);fill-opacity:1;stroke-width:1px;stroke:none;stroke-opacity:1;"></path><path d=" M 1.75 63.50 c 0.00 0.06 0.04 0.08 0.08 0.08 c 0.03 0.00 0.06 -0.01 0.08 -0.02 c 2.55 -1.34 4.65 -3.73 4.65 -9.40 v -0.60 h -1.53 v 0.60 c 0.00 3.23 -0.64 7.03 -3.31 9.06 c -0.12 0.09 -0.13 0.19 -0.13 0.28 z" style="fill:rgb(0,0,0);fill-opacity:1;stroke-width:1px;stroke:none;stroke-opacity:1;"></path></svg><line style="fill:none;stroke-width:[object Object];stroke:rgba(0, 0, 0, 0);" x1="38.14996337890625" y1="3" x2="57.84996032714844" y2="3"></line><line style="fill:none;stroke-width:[object Object];stroke:rgba(0, 0, 0, 0);" x1="38.14996337890625" y1="24.399993896484375" x2="57.84996032714844" y2="24.399993896484375"></line><line style="fill:none;stroke-width:[object Object];stroke:rgba(0, 0, 0, 0);" x1="38.14996337890625" y1="45.79998779296875" x2="57.84996032714844" y2="45.79998779296875"></line><line style="fill:none;stroke-width:[object Object];stroke:rgba(0, 0, 0, 0);" x1="38.14996337890625" y1="67.19999694824219" x2="57.84996032714844" y2="67.19999694824219"></line><line style="fill:none;stroke-width:[object Object];stroke:rgba(0, 0, 0, 0);" x1="38.14996337890625" y1="3" x2="38.14996337890625" y2="24.399993896484375"></line><line style="fill:none;stroke-width:[object Object];stroke:rgba(0, 0, 0, 0);" x1="57.84996032714844" y1="3" x2="57.84996032714844" y2="24.399993896484375"></line><line style="fill:none;stroke-width:[object Object];stroke:rgba(0, 0, 0, 0);" x1="38.14996337890625" y1="24.399993896484375" x2="38.14996337890625" y2="45.79998779296875"></line><line style="fill:none;stroke-width:[object Object];stroke:rgba(0, 0, 0, 0);" x1="57.84996032714844" y1="24.399993896484375" x2="57.84996032714844" y2="45.79998779296875"></line><line style="fill:none;stroke-width:[object Object];stroke:rgba(0, 0, 0, 0);" x1="38.14996337890625" y1="45.79998779296875" x2="38.14996337890625" y2="67.19999694824219"></line><line style="fill:none;stroke-width:[object Object];stroke:rgba(0, 0, 0, 0);" x1="57.84996032714844" y1="45.79998779296875" x2="57.84996032714844" y2="67.19999694824219"></line></g></g></g></svg>